<svg xmlns="http://www.w3.org/2000/svg" version="1.1" xmlns:xlink="http://www.w3.org/1999/xlink" width="1000" height="1000"><g clip-path="url(#SvgjsClipPath1273)"><rect width="1000" height="1000" fill="#2c2c2d"></rect><g transform="matrix(3.5,0,0,3.5,150,150)"><svg xmlns="http://www.w3.org/2000/svg" version="1.1" xmlns:xlink="http://www.w3.org/1999/xlink" width="200" height="200"><svg xmlns="http://www.w3.org/2000/svg" version="1.1" xmlns:xlink="http://www.w3.org/1999/xlink" viewBox="0 0 200 200"><rect width="200" height="200" fill="url('#gradient')"></rect><defs><linearGradient id="gradient" gradientTransform="rotate(45 0.5 0.5)"><stop offset="0%" stop-color="#2a2a2c"></stop><stop offset="100%" stop-color="#2a2a2c"></stop></linearGradient><clipPath id="SvgjsClipPath1273"><rect width="1000" height="1000" x="0" y="0" rx="300" ry="300"></rect></clipPath></defs><g><g fill="#ffffff" transform="matrix(0.9891547749725577,0,0,0.9891547749725577,33.38179310628533,107.32691767406777)" stroke="#ffffff" stroke-width="0"><path d="M8.41-3.78L8.41-3.78Q8.41-4.53 7.88-4.95Q7.34-5.37 6.01-5.82Q4.67-6.27 3.82-6.69L3.82-6.69Q1.05-8.05 1.05-10.42L1.05-10.42Q1.05-11.60 1.74-12.50Q2.43-13.41 3.69-13.91Q4.95-14.41 6.52-14.41L6.52-14.41Q8.06-14.41 9.27-13.87Q10.49-13.32 11.16-12.31Q11.84-11.30 11.84-10L11.84-10L8.42-10Q8.42-10.87 7.89-11.35Q7.35-11.83 6.45-11.83L6.45-11.83Q5.53-11.83 5.00-11.42Q4.46-11.02 4.46-10.39L4.46-10.39Q4.46-9.84 5.05-9.40Q5.63-8.96 7.11-8.48Q8.58-8.01 9.53-7.46L9.53-7.46Q11.84-6.13 11.84-3.80L11.84-3.80Q11.84-1.93 10.43-0.87Q9.02 0.20 6.57 0.20L6.57 0.20Q4.84 0.20 3.44-0.42Q2.04-1.04 1.33-2.12Q0.63-3.20 0.63-4.61L0.63-4.61L4.06-4.61Q4.06-3.47 4.65-2.92Q5.24-2.38 6.57-2.38L6.57-2.38Q7.42-2.38 7.92-2.75Q8.41-3.12 8.41-3.78ZM16.66-15L16.66-9.43Q17.71-10.76 19.36-10.76L19.36-10.76Q21.10-10.76 21.99-9.73Q22.88-8.69 22.90-6.67L22.90-6.67L22.90 0L19.60 0L19.60-6.59Q19.60-7.43 19.26-7.83Q18.92-8.22 18.10-8.22L18.10-8.22Q17.08-8.22 16.66-7.58L16.66-7.58L16.66 0L13.37 0L13.37-15L16.66-15ZM33.97 0L30.68 0Q30.51-0.32 30.37-0.95L30.37-0.95Q29.46 0.20 27.83 0.20L27.83 0.20Q26.34 0.20 25.29-0.71Q24.25-1.61 24.25-2.98L24.25-2.98Q24.25-4.70 25.52-5.58Q26.79-6.46 29.21-6.46L29.21-6.46L30.22-6.46L30.22-7.01Q30.22-8.47 28.96-8.47L28.96-8.47Q27.79-8.47 27.79-7.31L27.79-7.31L24.50-7.31Q24.50-8.85 25.81-9.80Q27.11-10.76 29.13-10.76Q31.15-10.76 32.32-9.78Q33.50-8.79 33.53-7.07L33.53-7.07L33.53-2.39Q33.54-0.94 33.97-0.17L33.97-0.17L33.97 0ZM28.62-2.15L28.62-2.15Q29.24-2.15 29.64-2.41Q30.05-2.68 30.22-3.01L30.22-3.01L30.22-4.70L29.27-4.70Q27.55-4.70 27.55-3.15L27.55-3.15Q27.55-2.71 27.85-2.43Q28.15-2.15 28.62-2.15ZM38.82-10.57L38.82 0L35.52 0L35.52-10.57L38.82-10.57ZM35.32-13.29L35.32-13.29Q35.32-13.99 35.83-14.44Q36.34-14.89 37.15-14.89Q37.96-14.89 38.47-14.44Q38.97-13.99 38.97-13.29Q38.97-12.59 38.47-12.14Q37.96-11.69 37.15-11.69Q36.34-11.69 35.83-12.14Q35.32-12.59 35.32-13.29ZM47.39 0L45.09-3.94L44.16-3.01L44.16 0L40.87 0L40.87-15.01L44.16-15.01L44.16-7.04L44.49-7.48L46.97-10.57L50.92-10.57L47.22-6.22L51.16 0L47.39 0ZM51.93-14.22L56.44-14.22L59.61-4.33L62.77-14.22L67.29-14.22L67.29 0L63.85 0L63.85-3.32L64.18-10.12L60.74 0L58.48 0L55.03-10.13L55.36-3.32L55.36 0L51.93 0L51.93-14.22ZM75.70 0L75.61-1.14Q74.56 0.20 72.78 0.20L72.78 0.20Q71.04 0.20 70.15-0.82Q69.26-1.83 69.26-3.72L69.26-3.72L69.26-10.57L72.55-10.57L72.55-3.70Q72.55-2.34 73.87-2.34L73.87-2.34Q75-2.34 75.48-3.15L75.48-3.15L75.48-10.57L78.79-10.57L78.79 0L75.70 0ZM80.53-10.57L83.61-10.57L83.72-9.33Q84.81-10.76 86.74-10.76L86.74-10.76Q88.39-10.76 89.20-9.78Q90.02-8.79 90.05-6.81L90.05-6.81L90.05 0L86.75 0L86.75-6.67Q86.75-7.47 86.43-7.85Q86.10-8.22 85.25-8.22L85.25-8.22Q84.29-8.22 83.82-7.46L83.82-7.46L83.82 0L80.53 0L80.53-10.57ZM101.11 0L97.82 0Q97.65-0.32 97.51-0.95L97.51-0.95Q96.60 0.20 94.97 0.20L94.97 0.20Q93.48 0.20 92.43-0.71Q91.39-1.61 91.39-2.98L91.39-2.98Q91.39-4.70 92.66-5.58Q93.93-6.46 96.35-6.46L96.35-6.46L97.36-6.46L97.36-7.01Q97.36-8.47 96.10-8.47L96.10-8.47Q94.93-8.47 94.93-7.31L94.93-7.31L91.64-7.31Q91.64-8.85 92.94-9.80Q94.25-10.76 96.27-10.76Q98.29-10.76 99.46-9.78Q100.63-8.79 100.66-7.07L100.66-7.07L100.66-2.39Q100.68-0.94 101.11-0.17L101.11-0.17L101.11 0ZM95.76-2.15L95.76-2.15Q96.38-2.15 96.78-2.41Q97.19-2.68 97.36-3.01L97.36-3.01L97.36-4.70L96.41-4.70Q94.69-4.70 94.69-3.15L94.69-3.15Q94.69-2.71 94.99-2.43Q95.29-2.15 95.76-2.15ZM109.95-10.57L111.61-4.34L112.68-10.57L115.83-10.57L113.34 0L110.56 0L108.81-6.27L107.05 0L104.27 0L101.78-10.57L104.93-10.57L105.98-4.19L107.66-10.57L109.95-10.57ZM126.25 0L122.96 0Q122.78-0.32 122.65-0.95L122.65-0.95Q121.74 0.20 120.11 0.20L120.11 0.20Q118.61 0.20 117.57-0.71Q116.52-1.61 116.52-2.98L116.52-2.98Q116.52-4.70 117.79-5.58Q119.06-6.46 121.48-6.46L121.48-6.46L122.50-6.46L122.50-7.01Q122.50-8.47 121.24-8.47L121.24-8.47Q120.07-8.47 120.07-7.31L120.07-7.31L116.78-7.31Q116.78-8.85 118.08-9.80Q119.38-10.76 121.41-10.76Q123.43-10.76 124.60-9.78Q125.77-8.79 125.80-7.07L125.80-7.07L125.80-2.39Q125.82-0.94 126.25-0.17L126.25-0.17L126.25 0ZM120.90-2.15L120.90-2.15Q121.51-2.15 121.92-2.41Q122.32-2.68 122.50-3.01L122.50-3.01L122.50-4.70L121.54-4.70Q119.82-4.70 119.82-3.15L119.82-3.15Q119.82-2.71 120.13-2.43Q120.43-2.15 120.90-2.15ZM134.07-10.64L134.01-7.59L132.93-7.67Q131.38-7.67 130.94-6.69L130.94-6.69L130.94 0L127.65 0L127.65-10.57L130.73-10.57L130.84-9.21Q131.67-10.76 133.15-10.76L133.15-10.76Q133.68-10.76 134.07-10.64L134.07-10.64Z"></path></g></g></svg></svg></g></g></svg>